<?xml version="1.0" encoding="UTF-8" standalone="no"?>
<svg
   xmlns:dc="http://purl.org/dc/elements/1.1/"
   xmlns:cc="http://creativecommons.org/ns#"
   xmlns:rdf="http://www.w3.org/1999/02/22-rdf-syntax-ns#"
   xmlns:svg="http://www.w3.org/2000/svg"
   xmlns="http://www.w3.org/2000/svg"
   viewBox="0 0 1600 1600"
   height="1600"
   width="1600"
   xml:space="preserve"
   id="svg2"
   version="1.1"><metadata
     id="metadata8"><rdf:RDF><cc:Work
         rdf:about=""><dc:format>image/svg+xml</dc:format><dc:type
           rdf:resource="http://purl.org/dc/dcmitype/StillImage" /></cc:Work></rdf:RDF></metadata><defs
     id="defs6" /><g
     transform="matrix(1.3333333,0,0,-1.3333333,0,1600)"
     id="g10"><g
       transform="scale(0.1)"
       id="g12"><path
         id="path14"
         style="fill:#11100e;fill-opacity:1;fill-rule:nonzero;stroke:none"
         d="m 8011.11,7124.45 v -208.32 h -179.65 v -446.4 h 179.65 v -252.97 c 0,-1140.48 -933.58,-2068.33 -2081.11,-2068.33 -1147.53,0 -2081.12,927.85 -2081.12,2068.33 v 252.97 h 239.56 v 446.4 h -239.56 v 208.32 H 3250 v -907.69 c 0,-1342.44 1004.51,-2455.9 2305.7,-2637.43 V 2214 h -958.21 c -197.64,0 -359.34,-160.7 -359.34,-357.1 v -29.8 c 0,-196.4 161.7,-357.1 359.34,-357.1 h 2814.75 c 197.63,0 359.32,160.7 359.32,357.1 v 29.8 c 0,196.4 -161.69,357.1 -359.32,357.1 H 6394.13 V 3593.3 C 7651.46,3812.39 8610,4905.37 8610,6216.76 v 907.69 h -598.89" /><path
         id="path16"
         style="fill:#11100e;fill-opacity:1;fill-rule:nonzero;stroke:none"
         d="m 5974.92,4654.35 c 955.21,0 1736.76,776.74 1736.76,1726.09 v 104.16 h -823.47 v 241.85 h 823.47 v 268.7 h -823.47 v 241.84 h 823.47 v 268.71 h -823.47 v 241.84 h 823.47 v 268.71 h -823.47 v 241.84 h 823.47 v 175.82 c 0,22.13 -0.86,44.07 -1.7,66.02 h -821.77 v 241.84 h 795.06 c -16.9,92.26 -41.03,182.07 -72.18,268.7 h -722.88 v 241.84 h 614.4 c -294.59,539.36 -869.93,907.69 -1527.69,907.69 -657.77,0 -1233.11,-368.33 -1527.69,-907.69 h 494.62 v -241.84 h -603.11 c -31.15,-86.63 -55.27,-176.44 -72.17,-268.7 h 675.28 v -241.84 h -702 c -0.84,-21.95 -1.7,-43.89 -1.7,-66.02 v -175.82 h 703.7 v -241.84 h -703.7 v -268.71 h 703.7 V 7505.7 h -703.7 v -268.71 h 703.7 v -241.84 h -703.7 v -268.7 h 703.7 V 6484.6 h -703.7 v -104.16 c 0,-949.35 781.55,-1726.09 1736.77,-1726.09" /></g></g></svg>