<?xml version="1.0" encoding="UTF-8" standalone="no"?>
<!-- Created with Inkscape (http://www.inkscape.org/) -->

<svg
   width="210mm"
   height="297mm"
   viewBox="0 0 210 297"
   version="1.1"
   id="svg1"
   inkscape:version="1.3.2 (091e20e, 2023-11-25, custom)"
   sodipodi:docname="splash_front.svg"
   xmlns:inkscape="http://www.inkscape.org/namespaces/inkscape"
   xmlns:sodipodi="http://sodipodi.sourceforge.net/DTD/sodipodi-0.dtd"
   xmlns="http://www.w3.org/2000/svg"
   xmlns:svg="http://www.w3.org/2000/svg">
  <sodipodi:namedview
     id="namedview1"
     pagecolor="#ffffff"
     bordercolor="#000000"
     borderopacity="0.25"
     inkscape:showpageshadow="2"
     inkscape:pageopacity="0.0"
     inkscape:pagecheckerboard="0"
     inkscape:deskcolor="#d1d1d1"
     inkscape:document-units="mm"
     inkscape:zoom="0.73139029"
     inkscape:cx="397.18876"
     inkscape:cy="561.25984"
     inkscape:window-width="1920"
     inkscape:window-height="1017"
     inkscape:window-x="-8"
     inkscape:window-y="-8"
     inkscape:window-maximized="1"
     inkscape:current-layer="layer1" />
  <defs
     id="defs1" />
  <g
     inkscape:label="Layer 1"
     inkscape:groupmode="layer"
     id="layer1">
    <path
       style="font-size:23.9889px;font-family:PMingLiU-ExtB;-inkscape-font-specification:'PMingLiU-ExtB, Normal';fill:#85137d;fill-opacity:0.970315;stroke-width:0.264583"
       d="m 65.071456,130.93693 h -6.653172 v -0.46853 q 1.007347,-0.0937 1.382173,-0.2577 0.3514,-0.14056 0.3514,-0.58566 0,-0.7028 -3.045466,-4.40421 l -2.436372,-2.97519 -1.26504,1.26504 v 4.54477 q 0,1.35875 0.49196,1.85071 0.49196,0.4451 1.874133,0.56224 v 0.46853 h -6.208065 v -0.46853 q 1.4056,-0.11714 1.897559,-0.6091 0.445107,-0.51538 0.445107,-2.13182 v -11.26823 q 0,-1.47587 -0.585667,-1.92098 -0.351399,-0.25769 -1.756999,-0.37483 v -0.46853 h 6.254918 v 0.46853 q -1.499306,0.11714 -1.897559,0.42168 -0.515387,0.44511 -0.515387,1.87413 v 6.09094 q 4.029386,-4.16995 5.224145,-5.64583 1.12448,-1.38217 1.12448,-2.08497 0,-0.37483 -0.304547,-0.49196 -0.304546,-0.11713 -1.171333,-0.16399 v -0.46853 h 5.716105 v 0.46853 q -0.538813,0.0234 -1.101053,0.0703 -0.515386,0.0469 -1.007346,0.3514 -0.585667,0.37483 -1.429026,1.33532 l -4.708759,5.15387 5.645825,6.95771 q 1.12448,1.35875 1.920986,1.92099 0.819933,0.51539 1.757,0.51539 z m 7.074851,0 h -6.700024 v -0.46853 q 1.546159,-0.0703 2.084973,-0.58567 0.562239,-0.51539 0.562239,-1.92099 v -11.24479 q 0,-1.45245 -0.585666,-1.99127 -0.515387,-0.4451 -2.061546,-0.53881 v -0.46853 h 6.700024 v 0.46853 q -1.429026,0.0703 -1.967839,0.46853 -0.7028,0.56224 -0.7028,2.06155 v 11.24479 q 0,1.47588 0.7028,2.0147 0.538813,0.4451 1.967839,0.49196 z m 15.836423,-8.57416 q 0,3.27974 -1.733573,5.57555 -2.295812,2.99861 -6.910864,2.99861 h -6.418905 v -0.46853 q 1.382173,-0.11714 1.850706,-0.56224 0.468533,-0.46854 0.468533,-1.85071 v -11.45564 q 0,-1.45245 -0.49196,-1.92098 -0.398253,-0.37483 -1.827279,-0.51539 v -0.46853 h 6.090931 q 4.193373,0 6.512612,2.17868 2.459799,2.24896 2.459799,6.48918 z m -1.850706,0.0234 q 0,-3.88883 -2.155253,-6.09093 -1.710146,-1.80385 -6.044078,-1.80385 -0.84336,0 -1.077626,0.3514 -0.14056,0.21084 -0.14056,0.86678 v 13.18921 q 0,0.79651 0.374826,1.0542 0.28112,0.18741 1.147907,0.18741 7.894784,0 7.894784,-7.75422 z m 18.179086,-0.0937 q 0,4.05282 -2.13182,6.55947 -2.06155,2.38952 -5.224149,2.38952 -3.139172,0 -5.200718,-2.38952 -2.155253,-2.50665 -2.155253,-6.55947 0,-4.24022 2.295813,-6.74687 2.061546,-2.24896 5.060158,-2.24896 3.022039,0 5.083589,2.24896 2.27238,2.48322 2.27238,6.74687 z m -1.63986,-0.0234 q 0,-4.16995 -1.94442,-6.48919 -1.616436,-1.87413 -3.771689,-1.87413 -2.131826,0 -3.724838,1.87413 -1.944413,2.31924 -1.944413,6.48919 0,4.09966 1.874133,6.37205 1.569586,1.92098 3.795118,1.92098 2.225533,0 3.841969,-1.92098 1.87414,-2.27239 1.87414,-6.37205 z m 17.89796,0.0234 q 0,4.05282 -2.13182,6.55947 -2.06155,2.38952 -5.22415,2.38952 -3.13917,0 -5.20071,-2.38952 -2.15526,-2.50665 -2.15526,-6.55947 0,-4.24022 2.29582,-6.74687 2.06154,-2.24896 5.06015,-2.24896 3.02204,0 5.08359,2.24896 2.27238,2.48322 2.27238,6.74687 z m -1.63986,-0.0234 q 0,-4.16995 -1.94441,-6.48919 -1.61644,-1.87413 -3.7717,-1.87413 -2.13182,0 -3.72484,1.87413 -1.94441,2.31924 -1.94441,6.48919 0,4.09966 1.87413,6.37205 1.56959,1.92098 3.79512,1.92098 2.22554,0 3.84198,-1.92098 1.87413,-2.27239 1.87413,-6.37205 z m 18.38993,-0.0703 q -1.03078,0.11713 -1.28847,0.30454 -0.53881,0.39826 -0.53881,1.68672 v 5.31785 q 0,0.37483 -1.68672,1.00735 -1.85071,0.72623 -3.49057,0.72623 -4.19338,0 -6.37206,-2.76435 -1.87413,-2.36609 -1.87413,-6.46576 0,-3.44372 2.06155,-5.9738 2.2021,-2.74091 5.6224,-2.74091 1.38217,0 2.62378,0.51538 1.24161,0.46854 1.4056,0.46854 0.7028,0 0.96049,-0.98392 h 0.6091 l 0.18741,5.27099 h -0.53881 q -0.67938,-2.06154 -1.45246,-3.04546 -1.28846,-1.56959 -3.46714,-1.56959 -2.24896,0 -4.00596,1.73358 -2.36609,2.34266 -2.36609,6.84058 0,3.63113 2.03812,5.90352 1.92098,2.15525 4.75561,2.15525 1.28847,0 2.41295,-0.53881 1.10105,-0.53882 1.10105,-1.28847 v -4.26365 q 0,-1.54616 -0.53882,-1.96784 -0.28111,-0.21084 -1.73357,-0.32797 v -0.42168 h 5.57555 z m 13.75145,4.40421 -1.03078,4.33393 h -12.18186 v -0.46853 q 1.21819,-0.11714 1.71015,-0.56224 0.60909,-0.58567 0.60909,-2.03812 v -11.26823 q 0,-1.4993 -0.63252,-2.01469 -0.42168,-0.32797 -1.68672,-0.42168 v -0.46853 h 6.23149 v 0.46853 q -1.31189,0 -1.78042,0.3514 -0.65595,0.51539 -0.65595,2.08497 v 12.299 q 0,0.84336 0.42168,1.0542 0.44511,0.18741 2.03812,0.18741 3.04546,0 4.05281,-0.46853 1.47588,-0.63252 2.41295,-3.06889 z m 4.61504,-12.50984 z m 9.1364,12.62697 -0.98392,4.2168 h -12.20529 v -0.46853 q 1.26504,-0.11714 1.71015,-0.46854 0.60909,-0.51538 0.60909,-1.94441 v -11.45564 q 0,-1.4993 -0.60909,-1.99126 -0.39825,-0.32797 -1.71015,-0.44511 v -0.46853 h 12.01788 l 0.0703,3.514 h -0.49196 q -0.28112,-1.80385 -0.89021,-2.24896 -0.6091,-0.46853 -2.60036,-0.46853 h -3.37344 q -0.63252,0 -0.7028,0.0468 -0.23427,0.11713 -0.23427,0.84336 v 6.02065 h 3.84197 q 1.49931,0 1.99127,-0.51539 0.39825,-0.42168 0.60909,-1.89756 h 0.49196 v 5.83324 h -0.49196 q -0.21084,-1.59301 -0.65594,-2.01469 -0.46854,-0.44511 -1.94442,-0.44511 h -3.84197 v 6.51261 q 0,0.84336 0.60909,1.07763 0.58567,0.18741 3.27974,0.18741 2.17868,0 3.18602,-0.7028 1.00735,-0.7028 1.82728,-2.71749 z"
       id="text11"
       aria-label="KIDOOGLE" />
  </g>
</svg>
